<?xml version="1.0" encoding="utf-8"?>
<!-- Generator: Adobe Illustrator 25.4.6, SVG Export Plug-In . SVG Version: 6.00 Build 0)  -->
<svg version="1.1" xmlns="http://www.w3.org/2000/svg" xmlns:xlink="http://www.w3.org/1999/xlink" x="0px" y="0px"
	 viewBox="0 0 999 999" style="enable-background:new 0 0 999 999;" xml:space="preserve">
<style type="text/css">
	.st0{fill:#FFFFFF;}
</style>
<g id="Layer_1">
	<rect x="-0.5" y="-0.5" width="999" height="333"/>
	<rect x="-0.5" y="665.5" width="999" height="333"/>
</g>
<g id="Layer_2">
	<g>
		<path class="st0" d="M156.7,66.6v131.2c0,24.1-5.5,42.6-16.4,55.3c-10.9,12.7-26.7,19.1-47.3,19.1c-20.2,0-35.5-6.3-46-18.9
			s-15.8-31.3-15.8-56V66.6h37.4V200c0,25.8,8.5,38.7,25.7,38.7c7.9,0,14.1-3.3,18.4-9.8c4.3-6.6,6.5-15.9,6.5-28V66.6H156.7z"/>
		<path class="st0" d="M333.7,269.3h-46L225,122.5h-1.8c2.3,11.2,3.5,23.2,3.5,36.1v110.8h-34.9V66.6H238l62.1,145.3h1.5
			c-1.8-9.7-2.6-21.3-2.6-34.7V66.6h34.7V269.3z"/>
		<path class="st0" d="M369.5,66.6h51.7c21.1,0,36.4,4.1,46,12.3c9.6,8.2,14.4,21.2,14.4,39c0,11.7-2.5,21.6-7.6,29.5
			c-5.1,7.9-12,12.7-20.8,14.4v1.4c11.5,2.9,19.7,8.2,24.8,16.1c5.1,7.9,7.6,18.3,7.6,31.3c0,18.4-4.9,32.8-14.8,43.2
			s-23.3,15.6-40.4,15.6h-61V66.6z M405,148.1h17.3c7.9,0,13.5-2.1,16.8-6.4c3.2-4.3,4.9-10.6,4.9-19c0-8.4-1.9-14.4-5.5-18.1
			c-3.7-3.7-9.5-5.5-17.5-5.5H405V148.1z M405,179.6v56.7h19c7.9,0,13.7-2.4,17.5-7.2c3.8-4.8,5.8-12.2,5.8-22.3
			c0-18.1-8-27.2-23.9-27.2H405z"/>
		<path class="st0" d="M652.9,167.7c0,33.6-6.3,59.4-18.9,77.4c-12.6,18-30.6,27-53.9,27c-23.5,0-41.5-9-54.1-27
			c-12.6-18-18.9-43.9-18.9-77.7c0-33.6,6.3-59.3,18.9-77.2c12.6-17.9,30.7-26.8,54.4-26.8c23.4,0,41.3,9,53.8,27
			C646.7,108.4,652.9,134.1,652.9,167.7z M545.7,167.7c0,23.1,2.9,40.7,8.7,52.8c5.8,12.1,14.4,18.2,25.7,18.2
			c22.7,0,34.1-23.7,34.1-71c0-47.3-11.3-71-33.8-71c-11.5,0-20.1,6-25.9,18.1S545.7,144.5,545.7,167.7z"/>
		<path class="st0" d="M720.2,190.4v78.9h-37.7V66.6h49.4c20.9,0,36.3,4.9,46.2,14.8c9.9,9.9,14.9,25,14.9,45.3
			c0,25.6-8.6,43.5-25.9,53.7l39,88.9h-40.4l-32-78.9H720.2z M720.2,158h9.7c8.9,0,15.3-2.5,19.1-7.6c3.9-5,5.8-12.5,5.8-22.5
			c0-10.4-2.1-17.7-6.2-22.1c-4.1-4.4-10.5-6.6-19.1-6.6h-9.4V158z"/>
		<path class="st0" d="M966.4,269.3h-46l-62.7-146.9h-1.8c2.3,11.2,3.5,23.2,3.5,36.1v110.8h-34.9V66.6h46.3l62.1,145.3h1.5
			c-1.8-9.7-2.6-21.3-2.6-34.7V66.6h34.7V269.3z"/>
	</g>
</g>
<g id="Layer_2_copy">
	<g>
		<path class="st0" d="M114.5,942.3L72.6,754.5h-1.7c1.9,14.5,2.9,27.8,2.9,39.8v148h-38V721.8h63.1l37.7,173.4h1.2l37.4-173.4h64
			v220.6h-38.9V792.8c0-12.4,0.7-25,2.1-38h-1.2l-41.8,187.5H114.5z"/>
		<path class="st0" d="M382.5,942.3l-12.7-55.7h-57.5l-12.7,55.7h-41l54.6-221.5h55.7l54.8,221.5H382.5z M362.1,850.3L350.3,799
			c-0.7-3.1-2.3-10.9-4.8-23.5c-2.5-12.5-3.9-20.9-4.5-25.1c-1.3,8.7-3,18.2-5,28.6c-2,10.4-7.2,34.2-15.7,71.3H362.1z"/>
		<path class="st0" d="M500.3,942.3h-40.9V757.8h-42.2v-36.1h125.4v36.1h-42.2V942.3z"/>
		<path class="st0" d="M633.8,942.3h-40.9V757.8h-42.2v-36.1h125.4v36.1h-42.2V942.3z"/>
		<path class="st0" d="M799,942.3h-99.4V721.8H799v35.5h-58.4v52.5h54.2v35.6h-54.2v61.1H799V942.3z"/>
		<path class="st0" d="M872.2,856.5v85.8h-41V721.8h53.7c22.7,0,39.5,5.4,50.3,16.1c10.8,10.8,16.2,27.2,16.2,49.3
			c0,27.9-9.4,47.3-28.2,58.4l42.4,96.7h-43.9l-34.9-85.8H872.2z M872.2,821.2h10.6c9.7,0,16.6-2.7,20.8-8.2
			c4.2-5.5,6.3-13.7,6.3-24.5c0-11.3-2.2-19.3-6.7-24.1c-4.5-4.8-11.4-7.2-20.7-7.2h-10.3V821.2z"/>
	</g>
</g>
<g id="Layer_2_copy_2">
	<g>
		<path d="M130.6,634.3V365.8h49.9v224.7h69.2v43.7H130.6z"/>
		<path d="M290.7,634.3V365.8h47v268.4H290.7z"/>
		<path d="M509.9,365.8h50.3L497,634.3h-63.5l-62.8-268.4H421l35.1,163.9c3.2,14,6.3,34,9.4,60c2.6-22.2,5.8-42.2,9.7-60
			L509.9,365.8z"/>
		<path d="M704.9,634.3h-121V365.8h121V409h-71.1v63.9h65.9v43.3h-65.9v74.4h71.1V634.3z"/>
		<path d="M866.2,560.3c0,25.1-6.3,44.3-19,57.6c-12.7,13.3-30.9,20-54.8,20c-23.4,0-43.3-4.6-59.7-13.8v-49.4
			c20.1,13.1,38.5,19.6,55.3,19.6c9.5,0,16.7-2.6,21.6-7.9c4.8-5.3,7.3-12.4,7.3-21.5c0-8.9-2.9-17.1-8.6-24.5
			c-5.8-7.4-15.2-15.6-28.5-24.7c-11.5-8-20.2-15.6-26.2-22.9c-5.9-7.3-10.5-15.5-13.8-24.5c-3.2-9.1-4.9-19.6-4.9-31.6
			c0-23,6.4-41.2,19.2-54.7c12.8-13.5,30-20.2,51.5-20.2c20.6,0,40.3,5.8,59.3,17.3l-16.5,40c-5.9-3.4-12-6.5-18.5-9.2
			c-6.4-2.7-13.3-4-20.7-4c-8.1,0-14.3,2.7-18.6,8c-4.3,5.3-6.5,12.6-6.5,21.8c0,9.1,2.6,17,7.8,23.7c5.2,6.7,14.3,14.4,27.3,22.9
			c17.5,11.8,29.7,23.7,36.6,36C862.8,530.7,866.2,544.6,866.2,560.3z"/>
	</g>
</g>
</svg>
